<svg width="70" height="28" viewBox="0 0 70 28" fill="none" xmlns="http://www.w3.org/2000/svg">
<path d="M58.3916 17.6748H58.4316L61.7988 9.22461H64.165L56.8906 26.166H54.6465L57.3506 20.2393L52.5771 9.22461H54.9434L58.3916 17.6748ZM47.0098 8.83984C48.6185 8.83986 49.8894 9.27863 50.8223 10.1426C51.7552 11.0068 52.2148 12.2147 52.2148 13.7373V20.9932H50.1328V19.3613H50.0381C49.1322 20.7054 47.9421 21.3779 46.4414 21.3779C45.1707 21.3778 44.089 20.9936 43.2373 20.2256C42.399 19.5123 41.9261 18.4558 41.9531 17.3447C41.9531 16.1239 42.4125 15.1635 43.3184 14.4365C44.2242 13.7095 45.4417 13.3525 46.9561 13.3525C48.2538 13.3526 49.3083 13.6001 50.1465 14.0664V13.5586C50.1465 12.8042 49.8218 12.0905 49.2539 11.5967C48.6726 11.0756 47.9287 10.7881 47.1582 10.7881C45.9414 10.7881 44.9814 11.3091 44.2783 12.3516L42.3584 11.1309C43.386 9.60824 44.9411 8.83984 47.0098 8.83984ZM36.6924 3.79199C38.0849 3.76458 39.4368 4.29958 40.4238 5.28711C42.3979 7.15266 42.5193 10.2941 40.667 12.3105L40.4238 12.5576C39.4098 13.5314 38.166 14.0254 36.6924 14.0254H33.0957V20.9932H30.9189V3.79199H36.6924ZM47.293 15.1348C46.414 15.1348 45.6702 15.355 45.0752 15.7803C44.4939 16.2055 44.1963 16.7401 44.1963 17.3848C44.1963 17.9609 44.4668 18.496 44.9131 18.8252C45.3999 19.2092 45.995 19.4151 46.6035 19.4014C47.523 19.4013 48.4017 19.0304 49.0508 18.3721C49.7674 17.6862 50.1328 16.8771 50.1328 15.9443C49.4567 15.3957 48.51 15.1211 47.293 15.1348ZM33.0947 11.9131H36.7461C37.5575 11.9405 38.342 11.6113 38.8965 11.0215C40.0324 9.82808 40.0056 7.90714 38.8291 6.75488C38.2747 6.20625 37.5304 5.90527 36.7461 5.90527H33.0947V11.9131Z" fill="white"/>
<path d="M25.5792 12.5164C25.5792 11.8443 25.5251 11.1721 25.4169 10.5137H16.2363V14.3134H21.4959C21.2796 15.5342 20.5765 16.6316 19.5489 17.3175V19.7866H22.6857C24.5245 18.0719 25.5792 15.5342 25.5792 12.5164Z" fill="white"/>
<path d="M16.2368 22.1729C18.8598 22.1729 21.0772 21.295 22.6862 19.7861L19.5494 17.317C18.6705 17.9206 17.5483 18.2635 16.2368 18.2635C13.6949 18.2635 11.5451 16.5214 10.7744 14.1895H7.54297V16.7409C9.1925 20.0742 12.5592 22.1729 16.2368 22.1729Z" fill="white"/>
<path d="M10.7756 14.1909C10.37 12.97 10.37 11.6394 10.7756 10.4049V7.86719H7.54367C6.15081 10.6518 6.15081 13.944 7.54367 16.7286L10.7756 14.1909Z" fill="white"/>
<path d="M16.2368 6.32995C17.6294 6.30252 18.968 6.83749 19.9685 7.81142L22.7538 4.98566C20.9826 3.31214 18.657 2.39308 16.2368 2.42052C12.5592 2.42052 9.1925 4.53298 7.54297 7.86629L10.7744 10.4177C11.5451 8.07205 13.6949 6.32995 16.2368 6.32995Z" fill="white"/>
</svg>
