<svg width="70" height="28" viewBox="0 0 70 28" fill="none" xmlns="http://www.w3.org/2000/svg">
<path d="M42.2432 2.625C48.6822 2.62522 53.902 7.78312 53.9023 14.1455C53.9023 19.605 50.0584 24.1739 44.8994 25.3623C44.6934 25.4098 44.4855 25.4517 44.2754 25.4883C43.6153 25.603 42.9365 25.667 42.2432 25.667L42.2422 25.666L42.2412 25.667C39.3544 25.667 36.715 24.6272 34.6787 22.9102C32.6425 24.6271 30.0029 25.667 27.1162 25.667C20.6771 25.6666 15.457 20.508 15.457 14.1455C15.4573 7.78323 20.6773 2.62539 27.1162 2.625C30.0024 2.625 32.6426 3.66346 34.6787 5.37988C36.7148 3.66329 39.3549 2.625 42.2412 2.625H42.2432ZM34.6787 5.38086C32.1729 7.49387 30.5822 10.6353 30.582 14.1455C30.582 17.6557 32.173 20.797 34.6787 22.9102C37.1841 20.797 38.7754 17.6554 38.7754 14.1455C38.7752 10.6355 37.1843 7.49386 34.6787 5.38086Z" fill="white"/>
</svg>
