<svg width="70" height="28" viewBox="0 0 70 28" fill="none" xmlns="http://www.w3.org/2000/svg">
<path fill-rule="evenodd" clip-rule="evenodd" d="M21.9488 21.9259H17.481L14.1306 8.76834C13.9716 8.16309 13.634 7.62802 13.1373 7.37583C11.8978 6.74208 10.532 6.2377 9.04199 5.98332V5.47676H16.2393C17.2326 5.47676 17.9776 6.2377 18.1018 7.12145L19.8401 16.6124L24.3057 5.47676H28.6494L21.9488 21.9259ZM31.1327 21.9257H26.9132L30.3877 5.47659H34.6072L31.1327 21.9257ZM40.0666 10.033C40.1907 9.14702 40.9357 8.64045 41.8049 8.64045C43.1707 8.51326 44.6585 8.76764 45.9002 9.39921L46.6452 5.85763C45.4035 5.35106 44.0377 5.09668 42.7982 5.09668C38.7029 5.09668 35.7229 7.37513 35.7229 10.5373C35.7229 12.943 37.8337 14.2061 39.3237 14.9671C40.9357 15.7258 41.5566 16.2324 41.4324 16.9911C41.4324 18.1293 40.1907 18.6358 38.9512 18.6358C37.4612 18.6358 35.9712 18.2564 34.6076 17.6227L33.8626 21.1665C35.3526 21.798 36.9646 22.0524 38.4546 22.0524C43.0466 22.1774 45.9002 19.9011 45.9002 16.4846C45.9002 12.182 40.0666 11.9298 40.0666 10.033ZM60.6674 21.9257L57.317 5.47659H53.7184C52.9734 5.47659 52.2284 5.98315 51.9801 6.74191L45.7761 21.9257H50.1197L50.9867 19.5223H56.3237L56.8204 21.9257H60.6674ZM54.337 9.90689L55.5765 16.1063H52.102L54.337 9.90689Z" fill="white"/>
</svg>
