<svg width="70" height="28" viewBox="0 0 70 28" fill="none" xmlns="http://www.w3.org/2000/svg">
<path fill-rule="evenodd" clip-rule="evenodd" d="M16.4915 4.83863C15.8079 5.6532 14.714 6.29568 13.6201 6.2039C13.4834 5.1025 14.0189 3.93228 14.6456 3.20949C15.3293 2.37197 16.5257 1.77538 17.4942 1.72949C17.6082 2.87677 17.1638 4.00111 16.4915 4.83863ZM17.4828 6.42217C16.5191 6.36633 15.6398 6.71398 14.9296 6.99479C14.4725 7.1755 14.0855 7.32853 13.791 7.32853C13.4606 7.32853 13.0576 7.16732 12.605 6.98632C12.0121 6.74915 11.3342 6.478 10.6234 6.49101C8.99397 6.51396 7.47851 7.44325 6.64672 8.92325C4.93756 11.8832 6.20234 16.2658 7.85453 18.6751C8.66353 19.8683 9.63206 21.1762 10.9082 21.1303C11.4697 21.109 11.8735 20.9364 12.2915 20.7579C12.7727 20.5523 13.2726 20.3387 14.0531 20.3387C14.8066 20.3387 15.2846 20.5467 15.7434 20.7464C16.1797 20.9362 16.5987 21.1186 17.2207 21.1074C18.5425 21.0844 19.3743 19.9142 20.1833 18.721C21.0563 17.4404 21.44 16.1906 21.4982 16.001L21.505 15.979C21.5036 15.9776 21.4929 15.9726 21.4738 15.9639C21.182 15.8293 18.9513 14.8011 18.9299 12.0439C18.9084 9.72953 20.6992 8.55695 20.9811 8.37236C20.9983 8.36113 21.0098 8.35355 21.0151 8.34961C19.8756 6.65163 18.0981 6.46806 17.4828 6.42217ZM26.6324 20.9803V3.09424H33.2982C36.7393 3.09424 39.1435 5.48058 39.1435 8.96832C39.1435 12.456 36.6937 14.8653 33.207 14.8653H29.3899V20.9803H26.6324ZM29.3892 5.43505H32.5682C34.9611 5.43505 36.3284 6.72 36.3284 8.98015C36.3284 11.2403 34.9611 12.5367 32.5569 12.5367H29.3892V5.43505ZM48.2464 18.8348C47.5172 20.2345 45.9106 21.1179 44.1786 21.1179C41.6149 21.1179 39.8259 19.5805 39.8259 17.263C39.8259 14.9684 41.5579 13.6491 44.7597 13.454L48.2008 13.2475V12.2609C48.2008 10.8038 47.2551 10.0122 45.5687 10.0122C44.1786 10.0122 43.1645 10.735 42.9594 11.8364H40.4754C40.5552 9.51886 42.7201 7.83236 45.6485 7.83236C48.8047 7.83236 50.8557 9.49592 50.8557 12.0773V20.9802H48.3034V18.8348H48.2464ZM44.9207 18.9946C43.4508 18.9946 42.5165 18.2833 42.5165 17.1934C42.5165 16.0691 43.4166 15.4151 45.1372 15.3119L48.2023 15.1168V16.1264C48.2023 17.8015 46.7894 18.9946 44.9207 18.9946ZM59.3234 21.6804C58.2181 24.8125 56.9534 25.845 54.2643 25.845C54.0592 25.845 53.3755 25.8221 53.216 25.7762V23.6308C53.3869 23.6537 53.8085 23.6766 54.025 23.6766C55.2442 23.6766 55.9279 23.1604 56.3495 21.818L56.6001 21.0264L51.9284 8.00478H54.8112L58.0586 18.5712H58.1156L61.363 8.00478H64.166L59.3234 21.6804Z" fill="white"/>
</svg>
