<svg width="247" height="48" viewBox="0 0 247 48" fill="none" xmlns="http://www.w3.org/2000/svg">
<path d="M246.201 6.5459C246.642 6.5459 247 6.90407 247 7.3459V40.655C247 41.0968 246.642 41.455 246.201 41.455H239.52C239.257 41.455 239.011 41.3253 238.862 41.1083L226.541 23.1722C226.516 23.1358 226.475 23.1141 226.431 23.1141C226.357 23.1141 226.297 23.1741 226.297 23.2481V40.655C226.297 41.0968 225.939 41.455 225.498 41.455H217.63C217.188 41.455 216.831 41.0968 216.831 40.655V7.3459C216.831 6.90407 217.188 6.5459 217.63 6.5459H224.443C224.708 6.5459 224.956 6.67718 225.104 6.89646L237.208 24.7405C237.241 24.7894 237.296 24.8186 237.355 24.8186C237.454 24.8186 237.534 24.7388 237.534 24.6403V7.3459C237.534 6.90407 237.891 6.5459 238.333 6.5459H246.201Z" fill="#3396D3"/>
<path d="M211.545 6.5459C211.987 6.5459 212.345 6.90407 212.345 7.3459V40.655C212.345 41.0968 211.987 41.455 211.545 41.455H203.678C203.236 41.455 202.878 41.0968 202.878 40.655V7.3459C202.878 6.90407 203.236 6.5459 203.678 6.5459H211.545Z" fill="#3396D3"/>
<path d="M159.891 41.455C159.537 41.455 159.225 41.2215 159.125 40.8813L149.313 7.5722C149.162 7.05969 149.545 6.5459 150.079 6.5459H158.925C159.3 6.5459 159.624 6.80632 159.705 7.17235L164.303 27.8874C164.321 27.9667 164.391 28.0232 164.472 28.0232C164.551 28.0232 164.619 27.9701 164.64 27.894L170.101 7.14206C170.194 6.79073 170.511 6.5459 170.874 6.5459H177.95C178.313 6.5459 178.631 6.79104 178.723 7.14267L184.185 27.9621C184.205 28.0383 184.274 28.0914 184.352 28.0914C184.433 28.0914 184.504 28.0349 184.521 27.9556L189.119 7.17288C189.201 6.8066 189.525 6.5459 189.9 6.5459H198.745C199.279 6.5459 199.663 7.05969 199.512 7.5722L189.7 40.8813C189.599 41.2215 189.287 41.455 188.933 41.455H181.065C180.714 41.455 180.403 41.2247 180.301 40.8878L174.588 22.0855C174.564 22.008 174.493 21.955 174.412 21.955C174.331 21.955 174.26 22.008 174.236 22.0855L168.523 40.8878C168.421 41.2247 168.111 41.455 167.759 41.455H159.891Z" fill="#3396D3"/>
<path d="M127.127 41.455C126.686 41.455 126.328 41.0968 126.328 40.655V7.3459C126.328 6.90407 126.686 6.5459 127.127 6.5459H134.995C135.437 6.5459 135.794 6.90407 135.794 7.3459V33.0186C135.794 33.4605 136.152 33.8186 136.593 33.8186H149.092C149.534 33.8186 149.891 34.1768 149.891 34.6186V40.655C149.891 41.0968 149.534 41.455 149.092 41.455H127.127Z" fill="#3396D3"/>
<path d="M99.7379 41.455C99.2966 41.455 98.9389 41.0968 98.9389 40.655V7.3459C98.9389 6.90407 99.2966 6.5459 99.7379 6.5459H107.606C108.047 6.5459 108.405 6.90407 108.405 7.3459V33.0186C108.405 33.4605 108.763 33.8186 109.204 33.8186H121.703C122.144 33.8186 122.502 34.1768 122.502 34.6186V40.655C122.502 41.0968 122.144 41.455 121.703 41.455H99.7379Z" fill="#3396D3"/>
<path d="M70.0099 40.8862C69.908 41.2239 69.5973 41.455 69.2449 41.455H60.7284C60.184 41.455 59.7989 40.9218 59.9696 40.4042L70.9512 7.09514C71.0593 6.76733 71.3652 6.5459 71.71 6.5459H83.4938C83.8386 6.5459 84.1445 6.76733 84.2526 7.09514L95.2342 40.4042C95.4049 40.9218 95.0198 41.455 94.4754 41.455H85.9589C85.6065 41.455 85.2958 41.2239 85.1939 40.8862L77.7775 16.2901C77.7541 16.2126 77.6828 16.1595 77.6019 16.1595C77.521 16.1595 77.4497 16.2126 77.4263 16.2901L70.0099 40.8862ZM67.9315 28.4823C67.9315 28.0404 68.2893 27.6823 68.7306 27.6823H86.337C86.7783 27.6823 87.1361 28.0404 87.1361 28.4823V33.9732C87.1361 34.415 86.7783 34.7732 86.337 34.7732H68.7306C68.2893 34.7732 67.9315 34.415 67.9315 33.9732V28.4823Z" fill="#3396D3"/>
<path d="M1.38048 14.3586C0.600671 11.3318 2.27267 8.21269 5.22312 7.19017L24.009 0.679693C25.2789 0.239581 26.6597 0.239581 27.9296 0.679693L46.7156 7.19017C49.6659 8.21269 51.3379 11.3318 50.558 14.3586L44.5657 37.6179C44.0979 39.4339 42.8088 40.9265 41.0814 41.6521L28.2879 47.0263C26.8049 47.6493 25.1337 47.6493 23.6506 47.0263L10.8571 41.6521C9.12974 40.9265 7.84067 39.4339 7.3728 37.6179L1.38048 14.3586Z" fill="#3396D3"/>
<path d="M16.2745 40C14.5252 40 12.9632 38.8606 12.4436 37.1882L5.21796 13.9343C4.61128 11.9819 6.06855 10 8.11086 10C9.47968 10 10.6785 10.9189 11.0356 12.2419L16.3412 31.8966C16.365 31.9846 16.4449 32.046 16.5361 32.046C16.626 32.046 16.7052 31.9864 16.7301 31.8998L22.2305 12.8165C22.7113 11.1484 24.2361 10 25.9703 10C27.7036 10 29.228 11.1475 29.7095 12.8146L35.2271 31.9222C35.2509 32.0042 35.3258 32.0606 35.4109 32.0606C35.4974 32.0606 35.5731 32.0026 35.5957 31.919L40.9036 12.2422C41.2606 10.9191 42.4594 10 43.8284 10C45.8705 10 47.3276 11.9817 46.7211 13.934L39.4953 37.1882C38.9757 38.8606 37.4149 40 35.6654 40C33.9207 40 32.3629 38.8664 31.8393 37.2L26.1453 19.0735C26.1223 19.0001 26.0544 18.9502 25.9775 18.9502C25.9008 18.9502 25.8328 19 25.8097 19.0733L20.1008 37.2028C19.5766 38.8678 18.0183 40 16.2745 40Z" fill="white"/>
<path d="M24.4851 33.7139C25.0209 32.3727 26.917 32.3727 27.4528 33.7139L29.0877 37.8057C29.5076 38.8567 28.7343 39.9999 27.6038 39.9999H24.3341C23.2036 39.9999 22.4303 38.8567 22.8502 37.8057L24.4851 33.7139Z" fill="white"/>
<path d="M27.5665 34H24.3711L25.9688 30L27.5665 34Z" fill="white"/>
</svg>
