<svg width="1920" height="182" viewBox="0 0 1920 182" fill="none" xmlns="http://www.w3.org/2000/svg">
<rect width="1920" height="182" fill="white"/>
<path d="M100.28 81.1884L100.353 78.0865C102.726 78.1346 104.591 77.9903 105.947 77.6537C107.352 77.3652 108.393 76.7881 109.071 75.9224C109.749 75.1049 110.234 73.9507 110.524 72.4599C110.864 70.921 111.154 68.9733 111.396 66.6169L98.2461 16.0496H102.169L108.853 43.0285L113.358 62.0002L117.281 42.8842L123.166 16.0496H127.162L115.465 66.9776C114.981 69.2378 114.52 71.2096 114.084 72.8927C113.649 74.5278 113.14 75.8744 112.559 76.9324C111.978 78.0384 111.203 78.9041 110.234 79.5292C109.265 80.2025 107.982 80.6594 106.383 80.8998C104.785 81.1403 102.751 81.2365 100.28 81.1884Z" fill="#1B1B1F"/>
<path d="M155.943 74.4797V47.3566C152.892 48.2222 150.01 48.6551 147.298 48.6551C144.246 48.6551 141.607 48.2463 139.378 47.4287C137.199 46.5631 135.504 45.2166 134.293 43.3891C133.082 41.5136 132.476 39.061 132.476 36.0313V16.0496H136.472V36.0313C136.472 38.6763 136.981 40.6961 137.998 42.0907C139.015 43.4853 140.371 44.4471 142.067 44.9761C143.81 45.5051 145.748 45.7696 147.879 45.7696C149.429 45.7696 150.882 45.6494 152.238 45.4089C153.643 45.1204 154.878 44.7838 155.943 44.399V16.0496H159.939V74.4797H155.943Z" fill="#1B1B1F"/>
<path d="M167.705 74.4797L180.056 16.0496H184.633L197.057 74.4797H193.061L190.009 58.3213H174.752L171.628 74.4797H167.705ZM175.333 55.4358H189.501L182.381 20.8106L175.333 55.4358Z" fill="#1B1B1F"/>
<path d="M217.891 75.2732C214.017 75.2732 211.038 74.4797 208.955 72.8927C206.921 71.3057 205.516 69.1898 204.741 66.5448C203.966 63.8517 203.579 60.8941 203.579 57.672V32.8573C203.579 29.4909 203.991 26.5093 204.814 23.9124C205.637 21.2674 207.09 19.1996 209.173 17.7087C211.256 16.1698 214.162 15.4004 217.891 15.4004C221.33 15.4004 224.019 16.0737 225.956 17.4202C227.893 18.7667 229.274 20.6904 230.097 23.1911C230.921 25.6437 231.332 28.5291 231.332 31.8474V34.805H227.554V31.8474C227.554 29.0581 227.288 26.7017 226.755 24.7781C226.222 22.8064 225.254 21.2915 223.849 20.2335C222.444 19.1755 220.459 18.6465 217.891 18.6465C215.082 18.6465 212.927 19.2236 211.425 20.3778C209.924 21.5319 208.907 23.143 208.374 25.2109C207.841 27.2788 207.575 29.6833 207.575 32.4245V58.2491C207.575 61.1346 207.865 63.6112 208.447 65.6791C209.028 67.6989 210.069 69.2619 211.571 70.368C213.072 71.4741 215.179 72.0271 217.891 72.0271C220.507 72.0271 222.517 71.4741 223.922 70.368C225.326 69.2619 226.271 67.723 226.755 65.7513C227.288 63.7315 227.554 61.3991 227.554 58.7541V55.2194H231.332V58.1049C231.332 61.4231 230.945 64.3807 230.17 66.9776C229.395 69.5745 228.039 71.6183 226.101 73.1091C224.164 74.5519 221.427 75.2732 217.891 75.2732Z" fill="#1B1B1F"/>
<path d="M248.134 74.4797V19.2236H236.364V16.0496H263.536V19.2236H252.057V74.4797H248.134Z" fill="#1B1B1F"/>
<path d="M270.443 74.4797V16.0496H274.366V40.7201H280.978C284.61 40.7201 287.589 41.3693 289.914 42.6678C292.239 43.9181 293.958 45.8177 295.072 48.3665C296.186 50.9153 296.743 54.1133 296.743 57.9606C296.743 60.3651 296.453 62.5773 295.871 64.5971C295.339 66.6169 294.443 68.3722 293.183 69.863C291.972 71.3057 290.374 72.4359 288.388 73.2534C286.402 74.071 283.981 74.4797 281.123 74.4797H270.443ZM274.366 71.3057H281.268C284.126 71.3057 286.378 70.8008 288.025 69.7909C289.72 68.7329 290.931 67.218 291.658 65.2463C292.384 63.2265 292.747 60.7739 292.747 57.8885C292.747 53.5122 291.9 50.0978 290.205 47.6452C288.509 45.1444 285.506 43.8941 281.196 43.8941H274.366V71.3057Z" fill="#1B1B1F"/>
<path d="M317.696 74.4797V16.0496H329.829C332.541 16.0496 334.769 16.4343 336.513 17.2038C338.305 17.9252 339.685 18.9591 340.654 20.3056C341.671 21.6522 342.374 23.2151 342.761 24.9945C343.197 26.7257 343.415 28.6013 343.415 30.6211C343.415 32.16 343.221 33.8191 342.834 35.5985C342.495 37.3297 341.841 38.8686 340.872 40.2152C339.903 41.5617 338.45 42.4754 336.513 42.9563C338.789 43.6296 340.509 44.7838 341.671 46.4188C342.882 48.0539 343.681 49.8814 344.069 51.9012C344.505 53.8729 344.723 55.7244 344.723 57.4556C344.723 59.6678 344.553 61.7838 344.214 63.8036C343.923 65.8234 343.318 67.6509 342.398 69.2859C341.477 70.8729 340.146 72.1473 338.402 73.1091C336.707 74.0229 334.43 74.4797 331.572 74.4797H317.696ZM321.619 71.3779H331.064C334.939 71.3779 337.53 70.2477 338.838 67.9875C340.194 65.7272 340.872 62.2407 340.872 57.5278C340.872 55.1713 340.581 53.0313 340 51.1077C339.467 49.1841 338.523 47.6452 337.167 46.491C335.859 45.3368 334.018 44.7597 331.645 44.7597H321.619V71.3779ZM321.619 41.6579H331.572C333.752 41.6579 335.423 41.1529 336.586 40.143C337.748 39.1331 338.547 37.8106 338.983 36.1755C339.467 34.4924 339.71 32.6409 339.71 30.6211C339.71 28.457 339.443 26.5093 338.91 24.7781C338.378 23.0468 337.336 21.7003 335.786 20.7384C334.285 19.7285 331.984 19.2236 328.884 19.2236H321.619V41.6579Z" fill="#1B1B1F"/>
<path d="M363.811 74.4797L376.162 16.0496H380.739L393.163 74.4797H389.167L386.116 58.3213H370.858L367.734 74.4797H363.811ZM371.44 55.4358H385.607L378.487 20.8106L371.44 55.4358Z" fill="#1B1B1F"/>
<path d="M412.763 75.2732C409.808 75.2732 407.411 74.6961 405.57 73.542C403.778 72.3878 402.47 70.8008 401.647 68.781C400.823 66.7131 400.412 64.2845 400.412 61.4953V60.4132H404.044C404.044 60.5094 404.044 60.7499 404.044 61.1346C404.044 61.4712 404.044 61.6876 404.044 61.7838C404.093 65.1501 404.795 67.723 406.151 69.5023C407.508 71.2817 409.711 72.1714 412.763 72.1714C414.603 72.1714 416.25 71.8107 417.703 71.0893C419.156 70.3199 420.295 68.9734 421.118 67.0497C421.99 65.1261 422.426 62.433 422.426 58.9705C422.426 55.1232 421.651 51.9493 420.101 49.4486C418.551 46.9478 415.911 45.6494 412.182 45.5532C412.133 45.5532 411.818 45.5532 411.237 45.5532C410.656 45.5532 410.075 45.5532 409.493 45.5532C408.912 45.5532 408.573 45.5532 408.476 45.5532V42.6678C408.573 42.6678 408.912 42.6678 409.493 42.6678C410.075 42.6678 410.656 42.6678 411.237 42.6678C411.818 42.6678 412.109 42.6678 412.109 42.6678C415.887 42.5716 418.551 41.4896 420.101 39.4217C421.651 37.3057 422.426 34.0836 422.426 29.7554C422.426 26.4853 421.723 23.7922 420.319 21.6762C418.963 19.5602 416.638 18.5022 413.344 18.5022C410.244 18.5022 407.847 19.2717 406.151 20.8106C404.505 22.3495 403.657 25.0426 403.609 28.8898C403.609 28.986 403.609 29.1784 403.609 29.4669C403.609 29.7074 403.609 29.8757 403.609 29.9719H399.976V29.0341C399.976 26.2929 400.388 23.9124 401.211 21.8926C402.083 19.8247 403.487 18.2377 405.425 17.1317C407.362 15.9775 409.954 15.4004 413.199 15.4004C416.202 15.4004 418.672 16.0496 420.609 17.3481C422.547 18.5984 423.976 20.3056 424.896 22.4697C425.865 24.6338 426.349 27.0864 426.349 29.8276C426.349 34.2038 425.526 37.5702 423.879 39.9266C422.232 42.235 420.222 43.6296 417.849 44.1105C419.108 44.399 420.391 45.0723 421.699 46.1303C423.007 47.1402 424.097 48.6791 424.969 50.747C425.889 52.8149 426.349 55.532 426.349 58.8984C426.349 62.0723 425.889 64.9097 424.969 67.4104C424.097 69.863 422.668 71.7866 420.682 73.1813C418.696 74.5759 416.056 75.2732 412.763 75.2732Z" fill="#1B1B1F"/>
<path d="M431.214 74.4797L443.565 16.0496H448.142L460.566 74.4797H456.57L453.518 58.3213H438.261L435.137 74.4797H431.214ZM438.842 55.4358H453.01L445.89 20.8106L438.842 55.4358Z" fill="#1B1B1F"/>
<path d="M468.323 74.4797V16.0496H482.127C485.663 16.0496 488.424 16.7229 490.41 18.0694C492.395 19.3679 493.776 21.1472 494.551 23.4075C495.374 25.6677 495.786 28.2406 495.786 31.126C495.786 33.7229 495.374 36.1996 494.551 38.556C493.776 40.9125 492.395 42.8361 490.41 44.3269C488.424 45.8177 485.687 46.5631 482.2 46.5631H472.246V74.4797H468.323ZM472.246 43.5334H481.328C483.701 43.5334 485.639 43.1246 487.14 42.3071C488.69 41.4896 489.828 40.1911 490.555 38.4118C491.33 36.5843 491.717 34.1557 491.717 31.126C491.717 28.0001 491.378 25.5716 490.7 23.8403C490.022 22.0609 488.932 20.8346 487.431 20.1614C485.929 19.44 483.919 19.0793 481.401 19.0793H472.246V43.5334Z" fill="#1B1B1F"/>
<path d="M511.359 74.4797V19.2236H499.589V16.0496H526.762V19.2236H515.283V74.4797H511.359Z" fill="#1B1B1F"/>
<path d="M533.596 74.4797V16.0496H537.592V42.3792H558.225V16.0496H562.148V74.4797H558.225V45.4089H537.592V74.4797H533.596Z" fill="#1B1B1F"/>
<path d="M572.973 74.4797V16.0496H576.533V65.8234L596.658 16.0496H599.927V74.4797H596.367V24.7059L576.315 74.4797H572.973Z" fill="#1B1B1F"/>
<path d="M606.432 74.4797L619.364 44.1826L606.505 16.0496H610.137L621.689 41.0086L632.95 16.0496H636.874L623.433 44.7597L637.164 74.4797H633.314L621.181 48.2222L610.355 74.4797H606.432Z" fill="#1B1B1F"/>
<path d="M657.478 74.4797V16.0496H661.401V74.4797H657.478Z" fill="#1B1B1F"/>
<path d="M672.376 74.4797V16.0496H692.356V19.2236H676.299V74.4797H672.376Z" fill="#1B1B1F"/>
<path d="M699.195 74.4797V16.0496H712.999C716.535 16.0496 719.296 16.7229 721.282 18.0694C723.268 19.3679 724.648 21.1472 725.423 23.4075C726.246 25.6677 726.658 28.2406 726.658 31.126C726.658 33.7229 726.246 36.1996 725.423 38.556C724.648 40.9125 723.268 42.8361 721.282 44.3269C719.296 45.8177 716.559 46.5631 713.072 46.5631H703.118V74.4797H699.195ZM703.118 43.5334H712.2C714.573 43.5334 716.511 43.1246 718.012 42.3071C719.562 41.4896 720.701 40.1911 721.427 38.4118C722.202 36.5843 722.589 34.1557 722.589 31.126C722.589 28.0001 722.25 25.5716 721.572 23.8403C720.894 22.0609 719.804 20.8346 718.303 20.1614C716.801 19.44 714.791 19.0793 712.273 19.0793H703.118V43.5334Z" fill="#1B1B1F"/>
<path d="M730.056 74.4797L742.407 16.0496H746.984L759.408 74.4797H755.412L752.361 58.3213H737.104L733.98 74.4797H730.056ZM737.685 55.4358H751.852L744.732 20.8106L737.685 55.4358Z" fill="#1B1B1F"/>
<path d="M762.806 74.4797L775.739 44.1826L762.879 16.0496H766.512L778.063 41.0086L789.325 16.0496H793.248L779.807 44.7597L793.539 74.4797H789.688L777.555 48.2222L766.73 74.4797H762.806Z" fill="#1B1B1F"/>
<path d="M813.053 74.4797L814.797 16.0496H818.72L831.144 68.781L843.786 16.0496H847.854L849.525 74.4797H846.11L844.657 25.4994L832.67 74.4797H829.763L817.921 25.5716L816.468 74.4797H813.053Z" fill="#1B1B1F"/>
<path d="M872.98 75.2732C869.154 75.2732 866.175 74.5278 864.044 73.037C861.961 71.4981 860.508 69.4302 859.685 66.8333C858.861 64.1883 858.45 61.2067 858.45 57.8885V32.3523C858.45 29.0341 858.885 26.1006 859.757 23.5518C860.629 21.003 862.106 19.0072 864.189 17.5645C866.32 16.1218 869.251 15.4004 872.98 15.4004C876.71 15.4004 879.616 16.1218 881.698 17.5645C883.83 19.0072 885.331 21.003 886.203 23.5518C887.075 26.1006 887.511 29.0341 887.511 32.3523V57.9606C887.511 61.2788 887.099 64.2364 886.276 66.8333C885.452 69.4302 883.975 71.4981 881.844 73.037C879.761 74.5278 876.806 75.2732 872.98 75.2732ZM872.98 72.0271C875.789 72.0271 877.945 71.4741 879.446 70.368C880.996 69.2619 882.062 67.723 882.643 65.7513C883.224 63.7315 883.515 61.3991 883.515 58.7541V31.7753C883.515 29.1303 883.224 26.8219 882.643 24.8502C882.062 22.8785 881.02 21.3636 879.519 20.3056C878.017 19.1996 875.838 18.6465 872.98 18.6465C870.171 18.6465 867.991 19.1996 866.441 20.3056C864.94 21.3636 863.898 22.8785 863.317 24.8502C862.736 26.8219 862.445 29.1303 862.445 31.7753V58.7541C862.445 61.3991 862.736 63.7315 863.317 65.7513C863.898 67.723 864.94 69.2619 866.441 70.368C867.991 71.4741 870.171 72.0271 872.98 72.0271Z" fill="#1B1B1F"/>
<path d="M893.223 74.4797L908.335 43.9662L894.603 16.0496H898.454L911.677 43.7498H912.185V16.0496H915.818V43.7498H916.327L929.55 16.0496H933.4L919.669 43.9662L934.781 74.4797H930.857L916.545 44.7597H915.818V74.4797H912.185V44.7597H911.386L897.146 74.4797H893.223Z" fill="#1B1B1F"/>
<path d="M941.701 74.4797V16.0496H962.044V19.2236H945.697V42.6678H959.138V45.6975H945.697V71.3779H962.262V74.4797H941.701Z" fill="#1B1B1F"/>
<path d="M984.06 74.4797V16.0496H996.193C998.906 16.0496 1001.13 16.4343 1002.88 17.2038C1004.67 17.9252 1006.05 18.9591 1007.02 20.3056C1008.04 21.6522 1008.74 23.2151 1009.13 24.9945C1009.56 26.7257 1009.78 28.6013 1009.78 30.6211C1009.78 32.16 1009.59 33.8191 1009.2 35.5985C1008.86 37.3297 1008.21 38.8686 1007.24 40.2152C1006.27 41.5617 1004.81 42.4754 1002.88 42.9563C1005.15 43.6296 1006.87 44.7838 1008.04 46.4188C1009.25 48.0539 1010.05 49.8814 1010.43 51.9012C1010.87 53.8729 1011.09 55.7244 1011.09 57.4556C1011.09 59.6678 1010.92 61.7838 1010.58 63.8036C1010.29 65.8234 1009.68 67.6509 1008.76 69.2859C1007.84 70.8729 1006.51 72.1473 1004.77 73.1091C1003.07 74.0229 1000.79 74.4797 997.937 74.4797H984.06ZM987.984 71.3779H997.429C1001.3 71.3779 1003.89 70.2477 1005.2 67.9875C1006.56 65.7272 1007.24 62.2407 1007.24 57.5278C1007.24 55.1713 1006.95 53.0313 1006.36 51.1077C1005.83 49.1841 1004.89 47.6452 1003.53 46.491C1002.22 45.3368 1000.38 44.7597 998.01 44.7597H987.984V71.3779ZM987.984 41.6579H997.937C1000.12 41.6579 1001.79 41.1529 1002.95 40.143C1004.11 39.1331 1004.91 37.8106 1005.35 36.1755C1005.83 34.4924 1006.07 32.6409 1006.07 30.6211C1006.07 28.457 1005.81 26.5093 1005.28 24.7781C1004.74 23.0468 1003.7 21.7003 1002.15 20.7384C1000.65 19.7285 998.349 19.2236 995.249 19.2236H987.984V41.6579Z" fill="#1B1B1F"/>
<path d="M1019.46 74.4797V16.0496H1023.02V65.8234L1043.15 16.0496H1046.42V74.4797H1042.86V24.7059L1022.8 74.4797H1019.46Z" fill="#1B1B1F"/>
<path d="M1057.21 74.4797V16.0496H1061.2V43.4613H1066.07L1079 16.0496H1083.07L1069.56 44.399L1085.25 74.4797H1081.26L1066.07 45.7696H1061.2V74.4797H1057.21Z" fill="#1B1B1F"/>
<path d="M1087.7 74.624V71.5222C1089.25 71.426 1090.54 71.2336 1091.56 70.9451C1092.57 70.6565 1093.4 69.9833 1094.03 68.9253C1094.65 67.8673 1095.19 66.16 1095.62 63.8036C1096.06 61.4472 1096.47 58.177 1096.86 53.9931C1097.29 49.8092 1097.78 44.4231 1098.31 37.8347L1099.91 16.0496H1120.98V74.4797H1116.98V19.0793H1103.62L1102.16 37.8347C1101.63 44.4231 1101.15 49.9295 1100.71 54.3538C1100.27 58.73 1099.76 62.2647 1099.18 64.9578C1098.65 67.6509 1097.92 69.6947 1097 71.0893C1096.13 72.4359 1094.95 73.3496 1093.44 73.8305C1091.94 74.3114 1090.03 74.5759 1087.7 74.624Z" fill="#1B1B1F"/>
<path d="M1131.71 74.4797V16.0496H1135.27V65.8234L1155.39 16.0496H1158.66V74.4797H1155.1V24.7059L1135.05 74.4797H1131.71Z" fill="#1B1B1F"/>
<path d="M1169.45 74.4797V16.0496H1173.45V43.4613H1178.32L1191.25 16.0496H1195.32L1181.8 44.399L1197.5 74.4797H1193.5L1178.32 45.7696H1173.45V74.4797H1169.45Z" fill="#1B1B1F"/>
<path d="M1200.46 74.4797L1212.81 16.0496H1217.38L1229.81 74.4797H1225.81L1222.76 58.3213H1207.5L1204.38 74.4797H1200.46ZM1208.08 55.4358H1222.25L1215.13 20.8106L1208.08 55.4358Z" fill="#1B1B1F"/>
<path d="M1242.71 74.4797V19.2236H1230.94V16.0496H1258.12V19.2236H1246.64V74.4797H1242.71Z" fill="#1B1B1F"/>
<path d="M1264.95 74.4797V16.0496H1268.51V65.8234L1288.64 16.0496H1291.9V74.4797H1288.34V24.7059L1268.29 74.4797H1264.95Z" fill="#1B1B1F"/>
<path d="M1316.61 74.4797V16.0496H1320.53V74.4797H1316.61Z" fill="#1B1B1F"/>
<path d="M1331.5 74.4797V16.0496H1351.48V19.2236H1335.43V74.4797H1331.5Z" fill="#1B1B1F"/>
<path d="M1358.32 74.4797V16.0496H1372.13C1375.66 16.0496 1378.42 16.7229 1380.41 18.0694C1382.4 19.3679 1383.78 21.1472 1384.55 23.4075C1385.37 25.6677 1385.79 28.2406 1385.79 31.126C1385.79 33.7229 1385.37 36.1996 1384.55 38.556C1383.78 40.9125 1382.4 42.8361 1380.41 44.3269C1378.42 45.8177 1375.69 46.5631 1372.2 46.5631H1362.25V74.4797H1358.32ZM1362.25 43.5334H1371.33C1373.7 43.5334 1375.64 43.1246 1377.14 42.3071C1378.69 41.4896 1379.83 40.1911 1380.55 38.4118C1381.33 36.5843 1381.72 34.1557 1381.72 31.126C1381.72 28.0001 1381.38 25.5716 1380.7 23.8403C1380.02 22.0609 1378.93 20.8346 1377.43 20.1614C1375.93 19.44 1373.92 19.0793 1371.4 19.0793H1362.25V43.5334Z" fill="#1B1B1F"/>
<path d="M1406.88 75.2732C1403.05 75.2732 1400.08 74.5278 1397.94 73.037C1395.86 71.4981 1394.41 69.4302 1393.59 66.8333C1392.76 64.1883 1392.35 61.2067 1392.35 57.8885V32.3523C1392.35 29.0341 1392.79 26.1006 1393.66 23.5518C1394.53 21.003 1396.01 19.0072 1398.09 17.5645C1400.22 16.1218 1403.15 15.4004 1406.88 15.4004C1410.61 15.4004 1413.52 16.1218 1415.6 17.5645C1417.73 19.0072 1419.23 21.003 1420.1 23.5518C1420.98 26.1006 1421.41 29.0341 1421.41 32.3523V57.9606C1421.41 61.2788 1421 64.2364 1420.18 66.8333C1419.35 69.4302 1417.88 71.4981 1415.74 73.037C1413.66 74.5278 1410.71 75.2732 1406.88 75.2732ZM1406.88 72.0271C1409.69 72.0271 1411.85 71.4741 1413.35 70.368C1414.9 69.2619 1415.96 67.723 1416.54 65.7513C1417.12 63.7315 1417.42 61.3991 1417.42 58.7541V31.7753C1417.42 29.1303 1417.12 26.8219 1416.54 24.8502C1415.96 22.8785 1414.92 21.3636 1413.42 20.3056C1411.92 19.1996 1409.74 18.6465 1406.88 18.6465C1404.07 18.6465 1401.89 19.1996 1400.34 20.3056C1398.84 21.3636 1397.8 22.8785 1397.22 24.8502C1396.64 26.8219 1396.35 29.1303 1396.35 31.7753V58.7541C1396.35 61.3991 1396.64 63.7315 1397.22 65.7513C1397.8 67.723 1398.84 69.2619 1400.34 70.368C1401.89 71.4741 1404.07 72.0271 1406.88 72.0271Z" fill="#1B1B1F"/>
<path d="M1431.05 74.4797V16.0496H1443.18C1445.89 16.0496 1448.12 16.4343 1449.86 17.2038C1451.66 17.9252 1453.04 18.9591 1454.01 20.3056C1455.02 21.6522 1455.72 23.2151 1456.11 24.9945C1456.55 26.7257 1456.77 28.6013 1456.77 30.6211C1456.77 32.16 1456.57 33.8191 1456.18 35.5985C1455.85 37.3297 1455.19 38.8686 1454.22 40.2152C1453.25 41.5617 1451.8 42.4754 1449.86 42.9563C1452.14 43.6296 1453.86 44.7838 1455.02 46.4188C1456.23 48.0539 1457.03 49.8814 1457.42 51.9012C1457.86 53.8729 1458.07 55.7244 1458.07 57.4556C1458.07 59.6678 1457.9 61.7838 1457.57 63.8036C1457.27 65.8234 1456.67 67.6509 1455.75 69.2859C1454.83 70.8729 1453.5 72.1473 1451.75 73.1091C1450.06 74.0229 1447.78 74.4797 1444.92 74.4797H1431.05ZM1434.97 71.3779H1444.42C1448.29 71.3779 1450.88 70.2477 1452.19 67.9875C1453.55 65.7272 1454.22 62.2407 1454.22 57.5278C1454.22 55.1713 1453.93 53.0313 1453.35 51.1077C1452.82 49.1841 1451.87 47.6452 1450.52 46.491C1449.21 45.3368 1447.37 44.7597 1445 44.7597H1434.97V71.3779ZM1434.97 41.6579H1444.92C1447.1 41.6579 1448.77 41.1529 1449.94 40.143C1451.1 39.1331 1451.9 37.8106 1452.33 36.1755C1452.82 34.4924 1453.06 32.6409 1453.06 30.6211C1453.06 28.457 1452.79 26.5093 1452.26 24.7781C1451.73 23.0468 1450.69 21.7003 1449.14 20.7384C1447.64 19.7285 1445.34 19.2236 1442.24 19.2236H1434.97V41.6579Z" fill="#1B1B1F"/>
<path d="M1465.5 81.1884L1465.58 78.0865C1467.95 78.1346 1469.82 77.9903 1471.17 77.6537C1472.58 77.3652 1473.62 76.7881 1474.3 75.9224C1474.97 75.1049 1475.46 73.9507 1475.75 72.4599C1476.09 70.921 1476.38 68.9733 1476.62 66.6169L1463.47 16.0496H1467.39L1474.08 43.0285L1478.58 62.0002L1482.51 42.8842L1488.39 16.0496H1492.39L1480.69 66.9776C1480.2 69.2378 1479.74 71.2096 1479.31 72.8927C1478.87 74.5278 1478.36 75.8744 1477.78 76.9324C1477.2 78.0384 1476.43 78.9041 1475.46 79.5292C1474.49 80.2025 1473.21 80.6594 1471.61 80.8998C1470.01 81.1403 1467.97 81.2365 1465.5 81.1884Z" fill="#1B1B1F"/>
<path d="M1524.98 75.2732C1522.02 75.2732 1519.63 74.6961 1517.79 73.542C1515.99 72.3878 1514.69 70.8008 1513.86 68.781C1513.04 66.7131 1512.63 64.2845 1512.63 61.4953V60.4132H1516.26C1516.26 60.5094 1516.26 60.7499 1516.26 61.1346C1516.26 61.4712 1516.26 61.6876 1516.26 61.7838C1516.31 65.1501 1517.01 67.723 1518.37 69.5023C1519.72 71.2817 1521.93 72.1714 1524.98 72.1714C1526.82 72.1714 1528.47 71.8107 1529.92 71.0893C1531.37 70.3199 1532.51 68.9734 1533.33 67.0497C1534.21 65.1261 1534.64 62.433 1534.64 58.9705C1534.64 55.1232 1533.87 51.9493 1532.32 49.4486C1530.77 46.9478 1528.13 45.6494 1524.4 45.5532C1524.35 45.5532 1524.03 45.5532 1523.45 45.5532C1522.87 45.5532 1522.29 45.5532 1521.71 45.5532C1521.13 45.5532 1520.79 45.5532 1520.69 45.5532V42.6678C1520.79 42.6678 1521.13 42.6678 1521.71 42.6678C1522.29 42.6678 1522.87 42.6678 1523.45 42.6678C1524.03 42.6678 1524.32 42.6678 1524.32 42.6678C1528.1 42.5716 1530.77 41.4896 1532.32 39.4217C1533.87 37.3057 1534.64 34.0836 1534.64 29.7554C1534.64 26.4853 1533.94 23.7922 1532.53 21.6762C1531.18 19.5602 1528.85 18.5022 1525.56 18.5022C1522.46 18.5022 1520.06 19.2717 1518.37 20.8106C1516.72 22.3495 1515.87 25.0426 1515.82 28.8898C1515.82 28.986 1515.82 29.1784 1515.82 29.4669C1515.82 29.7074 1515.82 29.8757 1515.82 29.9719H1512.19V29.0341C1512.19 26.2929 1512.6 23.9124 1513.43 21.8926C1514.3 19.8247 1515.7 18.2377 1517.64 17.1317C1519.58 15.9775 1522.17 15.4004 1525.41 15.4004C1528.42 15.4004 1530.89 16.0496 1532.83 17.3481C1534.76 18.5984 1536.19 20.3056 1537.11 22.4697C1538.08 24.6338 1538.56 27.0864 1538.56 29.8276C1538.56 34.2038 1537.74 37.5702 1536.09 39.9266C1534.45 42.235 1532.44 43.6296 1530.06 44.1105C1531.32 44.399 1532.61 45.0723 1533.91 46.1303C1535.22 47.1402 1536.31 48.6791 1537.18 50.747C1538.1 52.8149 1538.56 55.532 1538.56 58.8984C1538.56 62.0723 1538.1 64.9097 1537.18 67.4104C1536.31 69.863 1534.88 71.7866 1532.9 73.1813C1530.91 74.5759 1528.27 75.2732 1524.98 75.2732Z" fill="#1B1B1F"/>
<path d="M1543.43 74.4797L1555.78 16.0496H1560.36L1572.78 74.4797H1568.79L1565.73 58.3213H1550.48L1547.35 74.4797H1543.43ZM1551.06 55.4358H1565.23L1558.11 20.8106L1551.06 55.4358Z" fill="#1B1B1F"/>
<path d="M1576.91 74.624V71.5222C1578.46 71.426 1579.74 71.2336 1580.76 70.9451C1581.77 70.6565 1582.6 69.9833 1583.23 68.9253C1583.86 67.8673 1584.39 66.16 1584.83 63.8036C1585.26 61.4472 1585.67 58.177 1586.06 53.9931C1586.5 49.8092 1586.98 44.4231 1587.51 37.8347L1589.11 16.0496H1610.18V74.4797H1606.19V19.0793H1592.82L1591.36 37.8347C1590.83 44.4231 1590.35 49.9295 1589.91 54.3538C1589.48 58.73 1588.97 62.2647 1588.39 64.9578C1587.85 67.6509 1587.13 69.6947 1586.21 71.0893C1585.33 72.4359 1584.15 73.3496 1582.65 73.8305C1581.14 74.3114 1579.23 74.5759 1576.91 74.624Z" fill="#1B1B1F"/>
<path d="M1620.91 74.4797V16.0496H1641.25V19.2236H1624.9V42.6678H1638.34V45.6975H1624.9V71.3779H1641.47V74.4797H1620.91Z" fill="#1B1B1F"/>
<path d="M1645.58 74.4797L1660.69 43.9662L1646.96 16.0496H1650.81L1664.03 43.7498H1664.54V16.0496H1668.17V43.7498H1668.68L1681.91 16.0496H1685.76L1672.03 43.9662L1687.14 74.4797H1683.21L1668.9 44.7597H1668.17V74.4797H1664.54V44.7597H1663.74L1649.5 74.4797H1645.58Z" fill="#1B1B1F"/>
<path d="M1694.06 74.4797V16.0496H1698.05V42.3792H1718.69V16.0496H1722.61V74.4797H1718.69V45.4089H1698.05V74.4797H1694.06Z" fill="#1B1B1F"/>
<path d="M1733.58 74.4797V16.0496H1737.5V74.4797H1733.58Z" fill="#1B1B1F"/>
<path d="M1761.56 75.2732C1757.68 75.2732 1754.7 74.4797 1752.62 72.8927C1750.59 71.3057 1749.18 69.1898 1748.41 66.5448C1747.63 63.8517 1747.24 60.8941 1747.24 57.672V32.8573C1747.24 29.4909 1747.65 26.5093 1748.48 23.9124C1749.3 21.2674 1750.75 19.1996 1752.84 17.7087C1754.92 16.1698 1757.83 15.4004 1761.56 15.4004C1764.99 15.4004 1767.68 16.0737 1769.62 17.4202C1771.56 18.7667 1772.94 20.6904 1773.76 23.1911C1774.58 25.6437 1775 28.5291 1775 31.8474V34.805H1771.22V31.8474C1771.22 29.0581 1770.95 26.7017 1770.42 24.7781C1769.89 22.8064 1768.92 21.2915 1767.51 20.2335C1766.11 19.1755 1764.12 18.6465 1761.56 18.6465C1758.75 18.6465 1756.59 19.2236 1755.09 20.3778C1753.59 21.5319 1752.57 23.143 1752.04 25.2109C1751.51 27.2788 1751.24 29.6833 1751.24 32.4245V58.2491C1751.24 61.1346 1751.53 63.6112 1752.11 65.6791C1752.69 67.6989 1753.73 69.2619 1755.23 70.368C1756.74 71.4741 1758.84 72.0271 1761.56 72.0271C1764.17 72.0271 1766.18 71.4741 1767.59 70.368C1768.99 69.2619 1769.94 67.723 1770.42 65.7513C1770.95 63.7315 1771.22 61.3991 1771.22 58.7541V55.2194H1775V58.1049C1775 61.4231 1774.61 64.3807 1773.83 66.9776C1773.06 69.5745 1771.7 71.6183 1769.77 73.1091C1767.83 74.5519 1765.09 75.2732 1761.56 75.2732Z" fill="#1B1B1F"/>
<path d="M1791.8 74.4797V19.2236H1780.03V16.0496H1807.2V19.2236H1795.72V74.4797H1791.8Z" fill="#1B1B1F"/>
<path d="M1814.11 74.4797V16.0496H1818.03V40.7201H1824.64C1828.27 40.7201 1831.25 41.3693 1833.58 42.6678C1835.9 43.9181 1837.62 45.8177 1838.74 48.3665C1839.85 50.9153 1840.41 54.1133 1840.41 57.9606C1840.41 60.3651 1840.12 62.5773 1839.54 64.5971C1839 66.6169 1838.11 68.3722 1836.85 69.863C1835.64 71.3057 1834.04 72.4359 1832.05 73.2534C1830.07 74.071 1827.64 74.4797 1824.79 74.4797H1814.11ZM1818.03 71.3057H1824.93C1827.79 71.3057 1830.04 70.8008 1831.69 69.7909C1833.38 68.7329 1834.6 67.218 1835.32 65.2463C1836.05 63.2265 1836.41 60.7739 1836.41 57.8885C1836.41 53.5122 1835.56 50.0978 1833.87 47.6452C1832.17 45.1444 1829.17 43.8941 1824.86 43.8941H1818.03V71.3057Z" fill="#1B1B1F"/>
<path d="M1846.94 74.4797V66.9776H1851.23V74.4797H1846.94Z" fill="#1B1B1F"/>
<path d="M161.403 171.266V158.625H163.51C164.479 158.002 165.351 157.38 166.126 156.757C166.95 156.087 167.676 155.105 168.306 153.813C168.936 152.52 169.517 150.7 170.05 148.354C170.631 145.96 171.164 142.752 171.648 138.729C172.133 134.659 172.617 129.512 173.101 123.287L174.627 103.463H195.335V158.625H199.622V171.266H196.425L195.989 161.642H165.036L164.6 171.266H161.403ZM167.943 158.625H191.339V106.48H178.26L176.88 124.005C176.395 130.23 175.887 135.354 175.354 139.376C174.869 143.35 174.361 146.51 173.828 148.857C173.295 151.203 172.714 152.999 172.084 154.244C171.503 155.441 170.873 156.35 170.195 156.973C169.517 157.547 168.766 158.098 167.943 158.625Z" fill="#1B1B1F"/>
<path d="M220.508 162.432C216.681 162.432 213.702 161.689 211.571 160.205C209.488 158.673 208.035 156.614 207.211 154.028C206.388 151.394 205.976 148.426 205.976 145.122V119.696C205.976 116.392 206.412 113.471 207.284 110.933C208.156 108.395 209.633 106.408 211.716 104.972C213.847 103.535 216.778 102.817 220.508 102.817C224.237 102.817 227.144 103.535 229.227 104.972C231.358 106.408 232.86 108.395 233.731 110.933C234.603 113.471 235.039 116.392 235.039 119.696V145.194C235.039 148.498 234.628 151.442 233.804 154.028C232.981 156.614 231.503 158.673 229.372 160.205C227.289 161.689 224.334 162.432 220.508 162.432ZM220.508 159.199C223.317 159.199 225.473 158.649 226.974 157.547C228.524 156.446 229.59 154.914 230.171 152.951C230.752 150.94 231.043 148.617 231.043 145.984V119.121C231.043 116.488 230.752 114.189 230.171 112.226C229.59 110.263 228.548 108.754 227.047 107.701C225.545 106.6 223.366 106.049 220.508 106.049C217.698 106.049 215.518 106.6 213.968 107.701C212.467 108.754 211.425 110.263 210.844 112.226C210.263 114.189 209.972 116.488 209.972 119.121V145.984C209.972 148.617 210.263 150.94 210.844 152.951C211.425 154.914 212.467 156.446 213.968 157.547C215.518 158.649 217.698 159.199 220.508 159.199Z" fill="#1B1B1F"/>
<path d="M252.45 161.642V106.624H240.679V103.463H267.854V106.624H256.374V161.642H252.45Z" fill="#1B1B1F"/>
<path d="M274.761 161.642V103.463H288.566C292.102 103.463 294.863 104.134 296.849 105.474C298.835 106.767 300.216 108.539 300.991 110.789C301.814 113.04 302.226 115.602 302.226 118.475C302.226 121.06 301.814 123.526 300.991 125.873C300.216 128.219 298.835 130.134 296.849 131.619C294.863 133.103 292.126 133.845 288.639 133.845H278.684V161.642H274.761ZM278.684 130.829H287.767C290.14 130.829 292.078 130.422 293.579 129.608C295.129 128.794 296.268 127.501 296.994 125.729C297.769 123.909 298.157 121.491 298.157 118.475C298.157 115.362 297.818 112.944 297.14 111.22C296.461 109.449 295.372 108.228 293.87 107.557C292.368 106.839 290.358 106.48 287.839 106.48H278.684V130.829Z" fill="#1B1B1F"/>
<path d="M309.953 161.642V103.463H313.513V153.023L333.64 103.463H336.909V161.642H333.349V112.082L313.295 161.642H309.953Z" fill="#1B1B1F"/>
<path d="M347.048 161.642L348.791 103.463H352.715L365.139 155.967L377.782 103.463H381.851L383.522 161.642H380.107L378.654 112.872L366.665 161.642H363.759L351.916 112.944L350.462 161.642H347.048Z" fill="#1B1B1F"/>
<path d="M392.665 168.321L392.738 165.233C395.111 165.281 396.976 165.137 398.333 164.802C399.737 164.515 400.779 163.94 401.457 163.078C402.135 162.264 402.619 161.115 402.91 159.63C403.249 158.098 403.54 156.159 403.782 153.813L390.631 103.463H394.554L401.239 130.326L405.744 149.216L409.667 130.182L415.553 103.463H419.549L407.851 154.172C407.366 156.422 406.906 158.385 406.47 160.061C406.034 161.689 405.526 163.03 404.944 164.084C404.363 165.185 403.588 166.047 402.619 166.669C401.651 167.34 400.367 167.795 398.768 168.034C397.17 168.273 395.136 168.369 392.665 168.321Z" fill="#1B1B1F"/>
<path d="M426.462 161.642V103.463H430.022V153.023L450.149 103.463H453.418V161.642H449.858V112.082L429.804 161.642H426.462ZM440.049 99.0819C437.627 99.0819 435.666 98.4355 434.164 97.1426C432.711 95.8498 431.936 93.8387 431.839 91.1093H434.527C434.576 93.1683 435.133 94.6048 436.198 95.4188C437.264 96.2328 438.548 96.6398 440.049 96.6398C441.551 96.6398 442.835 96.2328 443.9 95.4188C444.966 94.6048 445.571 93.1683 445.717 91.1093H448.405C448.308 93.8387 447.485 95.8498 445.935 97.1426C444.433 98.4355 442.471 99.0819 440.049 99.0819Z" fill="#1B1B1F"/>
<path d="M472.058 161.642V106.624H460.287V103.463H487.461V106.624H475.981V161.642H472.058Z" fill="#1B1B1F"/>
<path d="M494.296 161.642V103.463H514.64V106.624H498.292V129.967H511.734V132.983H498.292V158.553H514.858V161.642H494.296Z" fill="#1B1B1F"/>
<path d="M535.971 162.432C532.096 162.432 529.117 161.642 527.034 160.061C525 158.481 523.595 156.374 522.82 153.741C522.045 151.059 521.657 148.114 521.657 144.906V120.198C521.657 116.847 522.069 113.878 522.892 111.292C523.716 108.659 525.169 106.6 527.252 105.115C529.335 103.583 532.241 102.817 535.971 102.817C539.41 102.817 542.099 103.487 544.036 104.828C545.974 106.169 547.354 108.084 548.178 110.574C549.001 113.016 549.413 115.889 549.413 119.193V122.138H545.635V119.193C545.635 116.416 545.368 114.069 544.835 112.154C544.302 110.191 543.334 108.683 541.929 107.629C540.524 106.576 538.538 106.049 535.971 106.049C533.162 106.049 531.006 106.624 529.504 107.773C528.003 108.922 526.986 110.526 526.453 112.585C525.92 114.644 525.653 117.038 525.653 119.768V145.481C525.653 148.354 525.944 150.82 526.525 152.879C527.107 154.89 528.148 156.446 529.65 157.547C531.151 158.649 533.258 159.199 535.971 159.199C538.587 159.199 540.597 158.649 542.002 157.547C543.406 156.446 544.351 154.914 544.835 152.951C545.368 150.94 545.635 148.617 545.635 145.984V142.464H549.413V145.337C549.413 148.641 549.025 151.586 548.25 154.172C547.475 156.757 546.119 158.792 544.181 160.277C542.244 161.713 539.507 162.432 535.971 162.432Z" fill="#1B1B1F"/>
<path d="M554.663 161.642L566.361 135.138C563.406 134.037 561.275 132.05 559.967 129.177C558.659 126.256 558.005 122.88 558.005 119.049C558.005 116.272 558.441 113.71 559.313 111.364C560.233 109.018 561.783 107.126 563.963 105.69C566.143 104.205 569.17 103.463 573.046 103.463H585.906V161.642H581.837V136.287H572.828C572.392 136.287 571.883 136.287 571.302 136.287C570.769 136.239 570.309 136.192 569.921 136.144L559.095 161.642H554.663ZM573.336 133.271H581.837V106.552H573.191C569.606 106.552 566.821 107.509 564.835 109.425C562.898 111.34 561.929 114.548 561.929 119.049C561.929 123.742 562.801 127.285 564.544 129.679C566.288 132.074 569.219 133.271 573.336 133.271Z" fill="#1B1B1F"/>
<path d="M610.523 161.642V103.463H639.223V161.642H635.299V106.48H614.446V161.642H610.523Z" fill="#1B1B1F"/>
<path d="M650.116 161.642V103.463H663.921C667.457 103.463 670.218 104.134 672.204 105.474C674.19 106.767 675.57 108.539 676.346 110.789C677.169 113.04 677.581 115.602 677.581 118.475C677.581 121.06 677.169 123.526 676.346 125.873C675.57 128.219 674.19 130.134 672.204 131.619C670.218 133.103 667.481 133.845 663.994 133.845H654.039V161.642H650.116ZM654.039 130.829H663.122C665.495 130.829 667.433 130.422 668.934 129.608C670.484 128.794 671.623 127.501 672.349 125.729C673.124 123.909 673.512 121.491 673.512 118.475C673.512 115.362 673.173 112.944 672.495 111.22C671.816 109.449 670.727 108.228 669.225 107.557C667.723 106.839 665.713 106.48 663.194 106.48H654.039V130.829Z" fill="#1B1B1F"/>
<path d="M680.979 161.642L693.331 103.463H697.909L710.333 161.642H706.337L703.285 145.553H688.027L684.903 161.642H680.979ZM688.608 142.68H702.777L695.656 108.204L688.608 142.68Z" fill="#1B1B1F"/>
<path d="M718.091 161.642V103.463H730.225C732.938 103.463 735.166 103.846 736.91 104.612C738.702 105.331 740.083 106.36 741.051 107.701C742.069 109.042 742.771 110.598 743.158 112.37C743.594 114.093 743.812 115.961 743.812 117.972C743.812 119.504 743.619 121.156 743.231 122.928C742.892 124.652 742.238 126.184 741.269 127.525C740.301 128.865 738.847 129.775 736.91 130.254C739.186 130.924 740.906 132.074 742.069 133.702C743.28 135.33 744.079 137.149 744.466 139.16C744.902 141.123 745.12 142.967 745.12 144.691C745.12 146.893 744.951 149 744.612 151.011C744.321 153.023 743.715 154.842 742.795 156.47C741.875 158.05 740.543 159.319 738.799 160.277C737.104 161.187 734.827 161.642 731.969 161.642H718.091ZM722.015 158.553H731.46C735.336 158.553 737.927 157.428 739.235 155.177C740.591 152.927 741.269 149.455 741.269 144.763C741.269 142.416 740.979 140.286 740.397 138.37C739.865 136.455 738.92 134.923 737.564 133.773C736.256 132.624 734.415 132.05 732.042 132.05H722.015V158.553ZM722.015 128.961H731.969C734.149 128.961 735.82 128.458 736.982 127.453C738.145 126.447 738.944 125.13 739.38 123.502C739.865 121.826 740.107 119.983 740.107 117.972C740.107 115.817 739.84 113.878 739.307 112.154C738.775 110.43 737.733 109.09 736.183 108.132C734.682 107.126 732.381 106.624 729.281 106.624H722.015V128.961Z" fill="#1B1B1F"/>
<path d="M753.496 161.642V103.463H757.057V153.023L777.183 103.463H780.453V161.642H776.892V112.082L756.839 161.642H753.496Z" fill="#1B1B1F"/>
<path d="M787.684 161.785V158.697C789.234 158.601 790.518 158.409 791.535 158.122C792.553 157.835 793.376 157.164 794.006 156.111C794.635 155.058 795.168 153.358 795.604 151.011C796.04 148.665 796.452 145.409 796.839 141.243C797.275 137.077 797.76 131.714 798.293 125.154L799.891 103.463H820.962V161.642H816.966V106.48H803.597L802.143 125.154C801.611 131.714 801.126 137.197 800.69 141.602C800.254 145.96 799.746 149.479 799.164 152.161C798.632 154.842 797.905 156.877 796.985 158.266C796.113 159.606 794.926 160.516 793.424 160.995C791.923 161.474 790.01 161.737 787.684 161.785Z" fill="#1B1B1F"/>
<path d="M857.153 172.2C854.973 172.008 853.181 171.29 851.776 170.045C850.371 168.848 849.281 167.22 848.506 165.161C847.731 163.102 847.15 160.684 846.763 157.907C846.424 155.081 846.206 151.969 846.109 148.569C846.06 145.17 846.036 141.554 846.036 137.724C846.036 133.845 846.06 130.182 846.109 126.735C846.206 123.287 846.424 120.151 846.763 117.325C847.15 114.452 847.731 111.986 848.506 109.927C849.281 107.821 850.371 106.193 851.776 105.043C853.181 103.846 854.973 103.2 857.153 103.104V105.905C855.312 106.145 853.883 107.126 852.866 108.85C851.849 110.526 851.122 112.8 850.686 115.673C850.25 118.499 849.984 121.803 849.887 125.585C849.839 129.32 849.814 133.366 849.814 137.724C849.814 142.081 849.839 146.151 849.887 149.934C849.984 153.669 850.25 156.949 850.686 159.774C851.122 162.599 851.825 164.85 852.793 166.526C853.81 168.249 855.264 169.231 857.153 169.47V172.2Z" fill="#1B1B1F"/>
<path d="M864.827 161.642V103.463H893.527V161.642H889.604V106.48H868.751V161.642H864.827Z" fill="#1B1B1F"/>
<path d="M904.421 161.642V103.463H918.226C921.762 103.463 924.523 104.134 926.509 105.474C928.495 106.767 929.875 108.539 930.65 110.789C931.474 113.04 931.885 115.602 931.885 118.475C931.885 121.06 931.474 123.526 930.65 125.873C929.875 128.219 928.495 130.134 926.509 131.619C924.523 133.103 921.786 133.845 918.298 133.845H908.344V161.642H904.421ZM908.344 130.829H917.426C919.8 130.829 921.737 130.422 923.239 129.608C924.789 128.794 925.927 127.501 926.654 125.729C927.429 123.909 927.817 121.491 927.817 118.475C927.817 115.362 927.478 112.944 926.799 111.22C926.121 109.449 925.031 108.228 923.53 107.557C922.028 106.839 920.018 106.48 917.499 106.48H908.344V130.829Z" fill="#1B1B1F"/>
<path d="M939.613 161.642V103.463H943.173V153.023L963.299 103.463H966.569V161.642H963.009V112.082L942.955 161.642H939.613Z" fill="#1B1B1F"/>
<path d="M977.361 161.642V103.463H981.357V129.679H1001.99V103.463H1005.92V161.642H1001.99V132.696H981.357V161.642H977.361Z" fill="#1B1B1F"/>
<path d="M1046.53 171.266L1046.1 161.642H1016.74V103.463H1020.74V158.625H1041.66V103.463H1045.66V158.625H1049.73V171.266H1046.53Z" fill="#1B1B1F"/>
<path d="M1057.04 161.642V103.463H1060.6V153.023L1080.73 103.463H1084V161.642H1080.44V112.082L1060.39 161.642H1057.04Z" fill="#1B1B1F"/>
<path d="M1094.87 161.642V103.463H1123.57V161.642H1119.64V106.48H1098.79V161.642H1094.87Z" fill="#1B1B1F"/>
<path d="M1134.53 161.642V103.463H1138.45V161.642H1134.53Z" fill="#1B1B1F"/>
<path d="M1149.43 161.642V103.463H1161.56C1164.28 103.463 1166.5 103.846 1168.25 104.612C1170.04 105.331 1171.42 106.36 1172.39 107.701C1173.41 109.042 1174.11 110.598 1174.5 112.37C1174.93 114.093 1175.15 115.961 1175.15 117.972C1175.15 119.504 1174.96 121.156 1174.57 122.928C1174.23 124.652 1173.58 126.184 1172.61 127.525C1171.64 128.865 1170.19 129.775 1168.25 130.254C1170.53 130.924 1172.24 132.074 1173.41 133.702C1174.62 135.33 1175.42 137.149 1175.81 139.16C1176.24 141.123 1176.46 142.967 1176.46 144.691C1176.46 146.893 1176.29 149 1175.95 151.011C1175.66 153.023 1175.05 154.842 1174.13 156.47C1173.21 158.05 1171.88 159.319 1170.14 160.277C1168.44 161.187 1166.17 161.642 1163.31 161.642H1149.43ZM1153.35 158.553H1162.8C1166.67 158.553 1169.27 157.428 1170.57 155.177C1171.93 152.927 1172.61 149.455 1172.61 144.763C1172.61 142.416 1172.32 140.286 1171.74 138.37C1171.2 136.455 1170.26 134.923 1168.9 133.773C1167.59 132.624 1165.75 132.05 1163.38 132.05H1153.35V158.553ZM1153.35 128.961H1163.31C1165.49 128.961 1167.16 128.458 1168.32 127.453C1169.48 126.447 1170.28 125.13 1170.72 123.502C1171.2 121.826 1171.45 119.983 1171.45 117.972C1171.45 115.817 1171.18 113.878 1170.65 112.154C1170.11 110.43 1169.07 109.09 1167.52 108.132C1166.02 107.126 1163.72 106.624 1160.62 106.624H1153.35V128.961Z" fill="#1B1B1F"/>
<path d="M1181.71 172.2V169.47C1183.55 169.231 1184.98 168.249 1186 166.526C1187.02 164.85 1187.74 162.599 1188.18 159.774C1188.61 156.901 1188.86 153.597 1188.9 149.862C1189 146.079 1189.05 142.009 1189.05 137.652C1189.05 133.295 1189 129.248 1188.9 125.514C1188.86 121.731 1188.61 118.427 1188.18 115.602C1187.74 112.777 1187.02 110.526 1186 108.85C1184.98 107.126 1183.55 106.145 1181.71 105.905V103.104C1183.89 103.2 1185.68 103.846 1187.09 105.043C1188.49 106.193 1189.58 107.821 1190.36 109.927C1191.18 111.986 1191.76 114.429 1192.1 117.254C1192.49 120.079 1192.71 123.215 1192.76 126.663C1192.85 130.11 1192.9 133.773 1192.9 137.652C1192.9 141.483 1192.85 145.098 1192.76 148.498C1192.71 151.897 1192.49 155.01 1192.1 157.835C1191.76 160.66 1191.18 163.102 1190.36 165.161C1189.58 167.22 1188.49 168.848 1187.09 170.045C1185.68 171.29 1183.89 172.008 1181.71 172.2Z" fill="#1B1B1F"/>
<path d="M1217.19 161.642V103.463H1229.33C1232.04 103.463 1234.27 103.846 1236.01 104.612C1237.8 105.331 1239.18 106.36 1240.15 107.701C1241.17 109.042 1241.87 110.598 1242.26 112.37C1242.7 114.093 1242.91 115.961 1242.91 117.972C1242.91 119.504 1242.72 121.156 1242.33 122.928C1241.99 124.652 1241.34 126.184 1240.37 127.525C1239.4 128.865 1237.95 129.775 1236.01 130.254C1238.29 130.924 1240.01 132.074 1241.17 133.702C1242.38 135.33 1243.18 137.149 1243.57 139.16C1244 141.123 1244.22 142.967 1244.22 144.691C1244.22 146.893 1244.05 149 1243.71 151.011C1243.42 153.023 1242.82 154.842 1241.9 156.47C1240.98 158.05 1239.64 159.319 1237.9 160.277C1236.21 161.187 1233.93 161.642 1231.07 161.642H1217.19ZM1221.12 158.553H1230.56C1234.44 158.553 1237.03 157.428 1238.34 155.177C1239.69 152.927 1240.37 149.455 1240.37 144.763C1240.37 142.416 1240.08 140.286 1239.5 138.37C1238.97 136.455 1238.02 134.923 1236.67 133.773C1235.36 132.624 1233.52 132.05 1231.14 132.05H1221.12V158.553ZM1221.12 128.961H1231.07C1233.25 128.961 1234.92 128.458 1236.08 127.453C1237.25 126.447 1238.05 125.13 1238.48 123.502C1238.97 121.826 1239.21 119.983 1239.21 117.972C1239.21 115.817 1238.94 113.878 1238.41 112.154C1237.88 110.43 1236.83 109.09 1235.28 108.132C1233.78 107.126 1231.48 106.624 1228.38 106.624H1221.12V128.961Z" fill="#1B1B1F"/>
<path d="M1252.74 161.642V103.463H1256.67V161.642H1252.74Z" fill="#1B1B1F"/>
<path d="M1262.85 171.266V158.625H1264.95C1265.92 158.002 1266.79 157.38 1267.57 156.757C1268.39 156.087 1269.12 155.105 1269.75 153.813C1270.38 152.52 1270.96 150.7 1271.49 148.354C1272.07 145.96 1272.61 142.752 1273.09 138.729C1273.58 134.659 1274.06 129.512 1274.54 123.287L1276.07 103.463H1296.78V158.625H1301.07V171.266H1297.87L1297.43 161.642H1266.48L1266.04 171.266H1262.85ZM1269.39 158.625H1292.78V106.48H1279.7L1278.32 124.005C1277.84 130.23 1277.33 135.354 1276.8 139.376C1276.31 143.35 1275.8 146.51 1275.27 148.857C1274.74 151.203 1274.16 152.999 1273.53 154.244C1272.95 155.441 1272.32 156.35 1271.64 156.973C1270.96 157.547 1270.21 158.098 1269.39 158.625Z" fill="#1B1B1F"/>
<path d="M1308.65 161.642V103.463H1337.35V161.642H1333.43V106.48H1312.58V161.642H1308.65Z" fill="#1B1B1F"/>
<path d="M1361.54 162.432C1357.72 162.432 1354.74 161.689 1352.61 160.205C1350.52 158.673 1349.07 156.614 1348.25 154.028C1347.42 151.394 1347.01 148.426 1347.01 145.122V119.696C1347.01 116.392 1347.45 113.471 1348.32 110.933C1349.19 108.395 1350.67 106.408 1352.75 104.972C1354.88 103.535 1357.81 102.817 1361.54 102.817C1365.27 102.817 1368.18 103.535 1370.26 104.972C1372.39 106.408 1373.9 108.395 1374.77 110.933C1375.64 113.471 1376.08 116.392 1376.08 119.696V145.194C1376.08 148.498 1375.66 151.442 1374.84 154.028C1374.02 156.614 1372.54 158.673 1370.41 160.205C1368.33 161.689 1365.37 162.432 1361.54 162.432ZM1361.54 159.199C1364.35 159.199 1366.51 158.649 1368.01 157.547C1369.56 156.446 1370.63 154.914 1371.21 152.951C1371.79 150.94 1372.08 148.617 1372.08 145.984V119.121C1372.08 116.488 1371.79 114.189 1371.21 112.226C1370.63 110.263 1369.59 108.754 1368.08 107.701C1366.58 106.6 1364.4 106.049 1361.54 106.049C1358.73 106.049 1356.55 106.6 1355 107.701C1353.5 108.754 1352.46 110.263 1351.88 112.226C1351.3 114.189 1351.01 116.488 1351.01 119.121V145.984C1351.01 148.617 1351.3 150.94 1351.88 152.951C1352.46 154.914 1353.5 156.446 1355 157.547C1356.55 158.649 1358.73 159.199 1361.54 159.199Z" fill="#1B1B1F"/>
<path d="M1385.71 161.642V103.463H1397.85C1400.56 103.463 1402.79 103.846 1404.53 104.612C1406.32 105.331 1407.7 106.36 1408.67 107.701C1409.69 109.042 1410.39 110.598 1410.78 112.37C1411.22 114.093 1411.43 115.961 1411.43 117.972C1411.43 119.504 1411.24 121.156 1410.85 122.928C1410.51 124.652 1409.86 126.184 1408.89 127.525C1407.92 128.865 1406.47 129.775 1404.53 130.254C1406.81 130.924 1408.53 132.074 1409.69 133.702C1410.9 135.33 1411.7 137.149 1412.09 139.16C1412.52 141.123 1412.74 142.967 1412.74 144.691C1412.74 146.893 1412.57 149 1412.23 151.011C1411.94 153.023 1411.34 154.842 1410.42 156.47C1409.5 158.05 1408.16 159.319 1406.42 160.277C1404.72 161.187 1402.45 161.642 1399.59 161.642H1385.71ZM1389.64 158.553H1399.08C1402.96 158.553 1405.55 157.428 1406.86 155.177C1408.21 152.927 1408.89 149.455 1408.89 144.763C1408.89 142.416 1408.6 140.286 1408.02 138.37C1407.49 136.455 1406.54 134.923 1405.18 133.773C1403.88 132.624 1402.04 132.05 1399.66 132.05H1389.64V158.553ZM1389.64 128.961H1399.59C1401.77 128.961 1403.44 128.458 1404.6 127.453C1405.77 126.447 1406.57 125.13 1407 123.502C1407.49 121.826 1407.73 119.983 1407.73 117.972C1407.73 115.817 1407.46 113.878 1406.93 112.154C1406.4 110.43 1405.35 109.09 1403.8 108.132C1402.3 107.126 1400 106.624 1396.9 106.624H1389.64V128.961Z" fill="#1B1B1F"/>
<path d="M1421.26 161.642V103.463H1425.19V161.642H1421.26Z" fill="#1B1B1F"/>
<path d="M1431.37 171.266V158.625H1433.47C1434.44 158.002 1435.31 157.38 1436.09 156.757C1436.91 156.087 1437.64 155.105 1438.27 153.813C1438.9 152.52 1439.48 150.7 1440.01 148.354C1440.59 145.96 1441.13 142.752 1441.61 138.729C1442.1 134.659 1442.58 129.512 1443.06 123.287L1444.59 103.463H1465.3V158.625H1469.58V171.266H1466.39L1465.95 161.642H1435L1434.56 171.266H1431.37ZM1437.91 158.625H1461.3V106.48H1448.22L1446.84 124.005C1446.36 130.23 1445.85 135.354 1445.32 139.376C1444.83 143.35 1444.32 146.51 1443.79 148.857C1443.26 151.203 1442.68 152.999 1442.05 154.244C1441.47 155.441 1440.84 156.35 1440.16 156.973C1439.48 157.547 1438.73 158.098 1437.91 158.625Z" fill="#1B1B1F"/>
<path d="M1474.05 161.642L1486.4 103.463H1490.98L1503.4 161.642H1499.41L1496.36 145.553H1481.1L1477.97 161.642H1474.05ZM1481.68 142.68H1495.85L1488.73 108.204L1481.68 142.68Z" fill="#1B1B1F"/>
<path d="M1507.53 161.785V158.697C1509.08 158.601 1510.36 158.409 1511.38 158.122C1512.4 157.835 1513.22 157.164 1513.85 156.111C1514.48 155.058 1515.01 153.358 1515.45 151.011C1515.88 148.665 1516.3 145.409 1516.68 141.243C1517.12 137.077 1517.6 131.714 1518.14 125.154L1519.74 103.463H1540.81V161.642H1536.81V106.48H1523.44L1521.99 125.154C1521.45 131.714 1520.97 137.197 1520.53 141.602C1520.1 145.96 1519.59 149.479 1519.01 152.161C1518.48 154.842 1517.75 156.877 1516.83 158.266C1515.96 159.606 1514.77 160.516 1513.27 160.995C1511.77 161.474 1509.85 161.737 1507.53 161.785Z" fill="#1B1B1F"/>
<path d="M1551.61 161.642V103.463H1555.53V128.027H1562.14C1565.77 128.027 1568.75 128.674 1571.08 129.967C1573.4 131.212 1575.12 133.103 1576.24 135.641C1577.35 138.179 1577.91 141.363 1577.91 145.194C1577.91 147.588 1577.62 149.79 1577.04 151.801C1576.5 153.813 1575.61 155.56 1574.35 157.045C1573.14 158.481 1571.54 159.606 1569.55 160.42C1567.57 161.235 1565.15 161.642 1562.29 161.642H1551.61ZM1555.53 158.481H1562.43C1565.29 158.481 1567.54 157.978 1569.19 156.973C1570.89 155.919 1572.1 154.411 1572.82 152.448C1573.55 150.437 1573.91 147.995 1573.91 145.122C1573.91 140.764 1573.06 137.365 1571.37 134.923C1569.67 132.433 1566.67 131.188 1562.36 131.188H1555.53V158.481Z" fill="#1B1B1F"/>
<path d="M1585.02 161.642V103.463H1589.02V129.679H1609.66V103.463H1613.58V161.642H1609.66V132.696H1589.02V161.642H1585.02Z" fill="#1B1B1F"/>
<path d="M1637.77 162.432C1633.95 162.432 1630.97 161.689 1628.84 160.205C1626.75 158.673 1625.3 156.614 1624.48 154.028C1623.65 151.394 1623.24 148.426 1623.24 145.122V119.696C1623.24 116.392 1623.68 113.471 1624.55 110.933C1625.42 108.395 1626.9 106.408 1628.98 104.972C1631.11 103.535 1634.04 102.817 1637.77 102.817C1641.5 102.817 1644.41 103.535 1646.49 104.972C1648.62 106.408 1650.13 108.395 1651 110.933C1651.87 113.471 1652.31 116.392 1652.31 119.696V145.194C1652.31 148.498 1651.89 151.442 1651.07 154.028C1650.25 156.614 1648.77 158.673 1646.64 160.205C1644.56 161.689 1641.6 162.432 1637.77 162.432ZM1637.77 159.199C1640.58 159.199 1642.74 158.649 1644.24 157.547C1645.79 156.446 1646.86 154.914 1647.44 152.951C1648.02 150.94 1648.31 148.617 1648.31 145.984V119.121C1648.31 116.488 1648.02 114.189 1647.44 112.226C1646.86 110.263 1645.82 108.754 1644.31 107.701C1642.81 106.6 1640.63 106.049 1637.77 106.049C1634.96 106.049 1632.79 106.6 1631.23 107.701C1629.73 108.754 1628.69 110.263 1628.11 112.226C1627.53 114.189 1627.24 116.488 1627.24 119.121V145.984C1627.24 148.617 1627.53 150.94 1628.11 152.951C1628.69 154.914 1629.73 156.446 1631.23 157.547C1632.79 158.649 1634.96 159.199 1637.77 159.199Z" fill="#1B1B1F"/>
<path d="M1662.01 161.642V103.463H1665.94V161.642H1662.01ZM1667.83 92.2585V86.7998H1671.9V92.2585H1667.83ZM1656.2 92.2585V86.7998H1660.2V92.2585H1656.2Z" fill="#1B1B1F"/>
<path d="M1690.68 161.642V103.463H1710.66V106.624H1694.6V161.642H1690.68Z" fill="#1B1B1F"/>
<path d="M1717.5 161.642V103.463H1731.31C1734.84 103.463 1737.6 104.134 1739.59 105.474C1741.57 106.767 1742.96 108.539 1743.73 110.789C1744.55 113.04 1744.97 115.602 1744.97 118.475C1744.97 121.06 1744.55 123.526 1743.73 125.873C1742.96 128.219 1741.57 130.134 1739.59 131.619C1737.6 133.103 1734.87 133.845 1731.38 133.845H1721.42V161.642H1717.5ZM1721.42 130.829H1730.51C1732.88 130.829 1734.82 130.422 1736.32 129.608C1737.87 128.794 1739.01 127.501 1739.73 125.729C1740.51 123.909 1740.9 121.491 1740.9 118.475C1740.9 115.362 1740.56 112.944 1739.88 111.22C1739.2 109.449 1738.11 108.228 1736.61 107.557C1735.11 106.839 1733.1 106.48 1730.58 106.48H1721.42V130.829Z" fill="#1B1B1F"/>
<path d="M1752.69 161.642V103.463H1756.25V153.023L1776.38 103.463H1779.65V161.642H1776.09V112.082L1756.04 161.642H1752.69Z" fill="#1B1B1F"/>
</svg>
